<svg xmlns="http://www.w3.org/2000/svg" viewBox="0 0 196 80">
<path class="st0" d="M135.6,17.5c2.5,0,4.9,0.7,6.9,2.1c2.1,1.4,3.7,3.3,4.6,5.6c0.9,2.3,1.2,4.8,0.7,7.2c-0.5,2.4-1.7,4.7-3.4,6.4
	c-1.7,1.7-4,2.9-6.4,3.4c-2.4,0.5-4.9,0.2-7.2-0.7c-2.3-0.9-4.2-2.5-5.6-4.6c-1.4-2.1-2.1-4.5-2.1-6.9c0-3.3,1.3-6.5,3.7-8.8
	C129.1,18.8,132.3,17.5,135.6,17.5z M135.6,12.5c-3.5,0-6.8,1-9.7,2.9c-2.9,1.9-5.1,4.7-6.4,7.9c-1.3,3.2-1.7,6.7-1,10.1
	c0.7,3.4,2.3,6.5,4.8,9c2.4,2.4,5.6,4.1,9,4.8c3.4,0.7,6.9,0.3,10.1-1c3.2-1.3,5.9-3.6,7.9-6.4c1.9-2.9,2.9-6.3,2.9-9.7
	c0-4.6-1.8-9.1-5.1-12.4C144.7,14.3,140.2,12.5,135.6,12.5z" fill="#fff"/>
<path class="st0" d="M148.1,52.5h-25c-4.6,0-9.1,1.9-12.4,5.1c-3.3,3.3-5.1,7.7-5.1,12.4v10h5V70c0-3.3,1.3-6.5,3.7-8.8
	c2.3-2.3,5.5-3.7,8.8-3.7v5.4c-2.1,0.6-4,1.8-5.4,3.5c-1.4,1.7-2.1,3.9-2.1,6.1V80h5v-7.5c0-1.3,0.5-2.6,1.5-3.5
	c0.9-0.9,2.2-1.5,3.5-1.5c1.3,0,2.6,0.5,3.5,1.5c0.9,0.9,1.5,2.2,1.5,3.5V80h5v-7.5c0-2.2-0.7-4.4-2.1-6.1c-1.4-1.7-3.3-3-5.4-3.5
	v-5.4h18.8V68c-1.3,0.6-2.4,1.6-3.1,2.9c-0.7,1.3-0.9,2.7-0.6,4.1c0.3,1.4,1.1,2.7,2.2,3.6c1.1,0.9,2.5,1.4,3.9,1.4s2.8-0.5,3.9-1.4
	c1.1-0.9,1.9-2.2,2.2-3.6c0.3-1.4,0.1-2.9-0.6-4.1c-0.7-1.3-1.7-2.3-3.1-2.9v-9.9c2.5,0.8,4.7,2.4,6.3,4.5c1.6,2.1,2.4,4.7,2.4,7.4
	v10h5V70c0-4.6-1.9-9.1-5.1-12.4C157.2,54.3,152.7,52.5,148.1,52.5z M149.4,76.2c-0.5,0-1-0.1-1.4-0.4c-0.4-0.3-0.7-0.7-0.9-1.1
	c-0.2-0.5-0.2-1-0.1-1.4c0.1-0.5,0.3-0.9,0.7-1.3c0.3-0.3,0.8-0.6,1.3-0.7c0.5-0.1,1,0,1.4,0.1c0.5,0.2,0.8,0.5,1.1,0.9
	s0.4,0.9,0.4,1.4c0,0.7-0.3,1.3-0.7,1.8C150.6,76,150,76.2,149.4,76.2z" fill="#fff"/>
</svg>
